HIERARCHY
ROOT Hips
{
	OFFSET 0.00000 0.00000 0.00000
	CHANNELS 6 Xposition Yposition Zposition Yrotation Zrotation Xrotation 
	JOINT Lumbar
	{
		OFFSET 0 0 0
		CHANNELS 3 Zrotation Xrotation Yrotation
		JOINT Neck
		{
			OFFSET 0.00 0.2701 0.00
			CHANNELS 3 Zrotation Xrotation Yrotation
			End Site
			{
				OFFSET 0.00 0.1379 0.00
			}
		}
		JOINT RightShoulder
		{
			OFFSET 0.0119 0.2289 0.1181
			CHANNELS 3 Zrotation Xrotation Yrotation
			JOINT RightElbow
			{
				OFFSET 0.00 -0.1475 0.00
				CHANNELS 2 Zrotation Yrotation
				JOINT RightWrist
				{
					OFFSET 0.00 -0.1605 0.00
					CHANNELS 2 Zrotation Xrotation
					End Site
					{
						OFFSET 0.0040 -0.1068 0.0006
					}
				}
			}
		}
		JOINT LeftShoulder
		{
			OFFSET 0.0119 0.2289 -0.1181
			CHANNELS 3 Zrotation Xrotation Yrotation
			JOINT LeftElbow
			{
				OFFSET 0.00 -0.1475 0.00
				CHANNELS 2 Zrotation Yrotation
				JOINT LeftWrist
				{
					OFFSET 0.00 -0.1605 0.00
					CHANNELS 2 Zrotation Xrotation
					End Site
					{
						OFFSET 0.0040 -0.1068 -0.0006
					}
				}
			}
		}
	}
	JOINT RightHip
	{
		OFFSET 0.0316 -0.0424 0.0458
		CHANNELS 3 Zrotation Xrotation Yrotation
		JOINT RightKnee
		{
			OFFSET 0.00 -0.2438 0.00
			CHANNELS 1 Zrotation
			JOINT RightAnkle
			{
				OFFSET 0.00 -0.2449 0.00
				CHANNELS 3 Zrotation Xrotation Yrotation
				End Site
				{
					OFFSET 0.1237 -0.0542 0.0051
				}
			}
		}
	}
	JOINT LeftHip
	{
		OFFSET 0.0316 -0.0424 -0.0458
		CHANNELS 3 Zrotation Xrotation Yrotation
		JOINT LeftKnee
		{
			OFFSET 0.00 -0.2438 0.00
			CHANNELS 1 Zrotation
			JOINT LeftAnkle
			{
				OFFSET 0.00 -0.2449 0.00
				CHANNELS 3 Zrotation Xrotation Yrotation
				End Site
				{
					OFFSET 0.1237 -0.0542 -0.0051
				}
			}
		}
	}
}
MOTION
Frames: 31
Frame Time: 0.02
0.00144 9e-05 -0.00048 16.47148 -20.59661 -6.33879 44.97513 2.10622 -5.64518 -7.31171 -5.37647 -0.35326 -13.55358 -12.44419 8.50113 47.81226 69.32752 3.17896 -5.00533 -21.51217 12.41038 -8.05732 45.79293 -92.59657 11.85126 0.0937 33.46897 -2.13388 -11.599 -21.11121 -8.48957 -3.7779 -4.16223 35.99215 9.81495 8.6639 -26.96414 -7.96212 3.25228 3.88363
0.00194 0.00015 0.00037 16.41583 -20.63553 -6.30618 44.97302 2.11147 -5.52945 -7.48435 -5.24884 -0.35741 -13.93466 -12.16239 7.6667 46.99877 73.13467 3.81785 -4.03647 -21.89409 12.46598 -7.55874 45.45995 -92.6608 11.88623 0.08548 33.49846 -2.12394 -11.95678 -21.13011 -8.43933 -3.73355 -4.13789 35.99416 9.89305 8.6079 -26.9584 -7.97609 3.25589 3.88636
0.00244 0.00022 0.00122 16.3606 -20.6744 -6.27368 44.97076 2.11665 -5.41407 -7.65665 -5.12144 -0.36155 -14.31536 -11.88152 6.8341 46.18669 76.92532 4.45393 -3.0718 -22.27525 12.52157 -7.0611 45.12737 -92.72493 11.92116 0.07727 33.52792 -2.11398 -12.31392 -21.14898 -8.38922 -3.6893 -4.11361 35.99628 9.97103 8.55192 -26.95268 -7.99003 3.25948 3.88908
0.00294 0.00029 0.00206 16.30516 -20.7132 -6.24117 44.96863 2.12187 -5.29868 -7.82879 -4.99416 -0.36568 -14.69539 -11.6006 6.00213 45.37552 80.71981 5.09068 -2.10615 -22.65607 12.57703 -6.56397 44.79532 -92.78899 11.95603 0.06908 33.55732 -2.10408 -12.67069 -21.16783 -8.33913 -3.64507 -4.08934 35.99829 10.04891 8.4961 -26.94696 -8.00396 3.26308 3.89181
0.00344 0.00036 0.00291 16.24921 -20.75204 -6.20854 44.9667 2.12719 -5.18295 -8.00121 -4.86672 -0.36982 -15.07553 -11.31872 5.16857 44.56339 84.53301 5.73067 -1.13577 -23.03748 12.63243 -6.0661 44.46307 -92.85309 11.99089 0.06087 33.58678 -2.09419 -13.02787 -21.1867 -8.28893 -3.60075 -4.06501 36.00016 10.12685 8.44025 -26.94124 -8.01793 3.26671 3.89455
0.00393 0.00042 0.00376 16.1955 -20.79098 -6.17631 44.96375 2.13207 -5.06833 -8.17322 -4.73943 -0.37395 -15.45741 -11.03997 4.33803 43.75147 88.27632 6.35853 -0.18307 -23.41807 12.68843 -5.56896 44.1298 -92.91728 12.02598 0.05265 33.61623 -2.08407 -13.38488 -21.20556 -8.23902 -3.55668 -4.04085 36.00284 10.20491 8.38396 -26.93551 -8.03181 3.27021 3.89723
0.00444 0.00049 0.0046 16.13731 -20.82964 -6.14331 44.96288 2.13782 -4.95158 -8.34588 -4.61195 -0.37809 -15.83529 -10.75528 3.50243 42.94 92.15469 7.00982 0.80379 -23.79992 12.74316 -5.07097 43.79902 -92.98126 12.06057 0.04448 33.64562 -2.07449 -13.74195 -21.22442 -8.18857 -3.51212 -4.01637 36.00382 10.28267 8.32882 -26.92981 -8.04584 3.27395 3.90003
0.00493 0.00056 0.00545 16.08334 -20.86861 -6.11102 44.96002 2.14276 -4.8368 -8.51791 -4.48468 -0.38222 -16.21697 -10.47601 2.67131 42.12816 95.91117 7.64001 1.75982 -24.18053 12.79909 -4.57363 43.46583 -93.04535 12.09563 0.03626 33.67514 -2.06432 -14.09876 -21.24328 -8.13863 -3.46804 -3.9922 36.00648 10.36066 8.27224 -26.92408 -8.05976 3.27751 3.90273
0.00543 0.00062 0.00631 16.03419 -20.9078 -6.07958 44.955 2.14675 -4.72437 -8.6894 -4.35744 -0.38634 -16.60315 -10.20346 1.84591 41.31514 99.50883 8.24251 2.67568 -24.56019 12.85639 -4.0773 43.1299 -93.10994 12.13125 0.02798 33.70453 -2.05375 -14.45633 -21.26216 -8.08924 -3.42442 -3.96832 36.01075 10.43917 8.21536 -26.91831 -8.07344 3.28071 3.90524
0.00595 0.00069 0.00713 15.95629 -20.94525 -6.0432 44.96321 2.15633 -4.59825 -8.8647 -4.22933 -0.39053 -16.96306 -9.89252 0.98831 40.50666 103.99077 8.99864 3.81521 -24.94706 12.90552 -3.57579 42.81032 -93.17278 12.16363 0.02003 33.73379 -2.04647 -14.81279 -21.28098 -8.03644 -3.3778 -3.94253 36.00447 10.51541 8.1646 -26.91276 -8.08817 3.28555 3.90867
0.00641 0.00075 0.00802 15.93968 -20.98666 -6.01729 44.94304 2.15404 -4.50113 -9.03147 -4.10354 -0.39458 -17.37851 -9.66241 0.19832 39.69023 106.62615 9.43431 4.48766 -25.31753 12.97206 -3.08493 42.45595 -93.23856 12.20285 0.0114 33.76388 -2.0316 -15.16942 -21.29988 -7.99101 -3.33775 -3.92089 36.02126 10.59594 8.09812 -26.90673 -8.10092 3.28717 3.91027
0.00672 0.00079 0.00906 16.08767 -21.03677 -6.02004 44.84769 2.11943 -4.48324 -9.17878 -3.98017 -0.39826 -17.9471 -9.65773 -0.40129 38.83833 103.98506 8.95155 3.82545 -25.65219 13.08549 -2.62569 42.00758 -93.31899 12.26108 0.00088 33.79162 -2.00106 -15.54492 -21.31935 -7.96457 -3.3137 -3.90981 36.09515 10.69278 8.01199 -26.89937 -8.10613 3.27793 3.90574
0.00697 0.00082 0.01018 16.29786 -21.09122 -6.03329 44.7232 2.07285 -4.49449 -9.31682 -3.85991 -0.40184 -18.5711 -9.73366 -0.93338 37.98136 99.52752 8.15411 2.70375 -25.96854 13.21652 -2.17694 41.52422 -93.40134 12.32616 -0.01028 33.82102 -1.96194 -15.9174 -21.33884 -7.94573 -3.29661 -3.90306 36.19332 10.79326 7.90639 -26.8915 -8.1097 3.26576 3.89954
0.00724 0.00085 0.01127 16.48196 -21.14517 -6.04181 44.61041 2.03155 -4.49268 -9.45652 -3.74069 -0.4054 -19.16958 -9.7702 -1.50024 37.13508 96.03923 7.52641 1.82718 -26.28749 13.3401 -1.72152 41.05556 -93.47823 12.38794 -0.02117 33.85268 -1.92336 -16.279 -21.35811 -7.92423 -3.2777 -3.8949 36.28449 10.88888 7.79352 -26.8839 -8.11546 3.25633 3.89486
0.00753 0.00089 0.01231 16.65703 -21.19313 -6.05026 44.50458 1.99085 -4.49035 -9.60692 -3.61084 -0.40903 -19.77057 -9.81808 -2.05194 36.25168 91.94464 6.78586 0.79743 -26.63122 13.46154 -1.27317 40.59092 -93.57368 12.45048 -0.03211 33.8717 -1.8989 -16.69151 -21.37827 -7.89947 -3.25323 -3.88439 36.35881 10.99735 7.74592 -26.87622 -8.1153 3.24124 3.8871
0.00776 0.00092 0.01348 16.86561 -21.25434 -6.06123 44.37672 1.94615 -4.49579 -9.7329 -3.50421 -0.41275 -20.37825 -9.86201 -2.61642 35.44655 88.677 6.20494 -0.02349 -26.91814 13.59146 -0.81383 40.11088 -93.63195 12.5131 -0.04293 33.91732 -1.84308 -16.99828 -21.39656 -7.88321 -3.24189 -3.87978 36.47381 11.08081 7.5612 -26.86846 -8.12685 3.23689 3.88517
0.00782 0.00089 0.01498 17.15159 -21.35321 -6.07769 44.20053 1.89254 -4.51736 -9.7931 -3.45787 -0.41434 -21.0002 -9.87017 -3.25659 34.84086 88.19076 6.1503 -0.1421 -27.05968 13.74152 -0.31142 39.58647 -93.57784 12.57386 -0.05474 34.03716 -1.70207 -17.00548 -21.4098 -7.88927 -3.26594 -3.89062 36.6969 11.08633 6.97245 -26.86162 -8.17322 3.26595 3.90132
0.00781 0.00086 0.01661 17.46907 -21.4649 -6.0961 44.00207 1.83552 -4.54543 -9.82908 -3.43532 -0.41644 -21.62469 -9.87251 -3.90724 34.31771 88.5903 6.26569 -0.03701 -27.1432 13.8992 0.20009 39.05008 -93.48761 12.63446 -0.06614 34.18361 -1.52999 -16.90816 -21.42114 -7.90348 -3.3028 -3.9072 36.95989 11.06798 6.25169 -26.85453 -8.23108 3.3054 3.9231
0.00783 0.00082 0.01819 17.77207 -21.56923 -6.1129 43.81042 1.78052 -4.56931 -9.8767 -3.40394 -0.41987 -22.2425 -9.8808 -4.53781 33.76819 88.54959 6.29777 -0.04285 -27.24887 14.0528 0.7013 38.52557 -93.42041 12.6955 -0.07678 34.31696 -1.37253 -16.86384 -21.43327 -7.91354 -3.33329 -3.92101 37.20328 11.06589 5.61151 -26.84689 -8.28228 3.33808 3.94123
0.00787 0.0008 0.01971 18.07807 -21.67998 -6.13318 43.63218 1.72294 -4.59932 -9.9217 -3.36447 -0.41675 -22.88765 -9.87785 -5.23186 33.17038 88.60369 6.34432 -0.02558 -27.37234 14.21 1.22992 37.97126 -93.3268 12.75554 -0.09146 34.45414 -1.21246 -16.79522 -21.44568 -7.92581 -3.36642 -3.93571 37.45312 11.04134 4.88499 -26.84203 -8.33935 3.37915 3.9638
0.00784 0.00076 0.02139 18.38434 -21.78063 -6.14651 43.42056 1.67029 -4.61786 -9.96604 -3.34726 -0.42733 -23.47315 -9.89602 -5.79559 32.69416 88.69548 6.40526 0.00265 -27.4444 14.36081 1.70157 37.4784 -93.2778 12.81717 -0.09761 34.59023 -1.05079 -16.75369 -21.45711 -7.93521 -3.39689 -3.94978 37.69942 11.0575 4.30564 -26.8313 -8.38715 3.40541 3.97859
0.00768 0.00067 0.02344 18.6844 -21.84795 -6.14023 43.12688 1.63048 -4.60173 -10.01853 -3.38715 -0.47635 -23.9143 -9.97258 -6.00911 32.52223 88.67422 6.46543 0.00894 -27.39553 14.49606 2.03172 37.14356 -93.37653 12.88645 -0.08033 34.71169 -0.89052 -16.80159 -21.46582 -7.93567 -3.41797 -3.96139 37.91991 11.19499 4.17866 -26.80466 -8.40476 3.38691 3.96979
0.00745 0.00057 0.02563 18.98311 -21.9051 -6.12679 42.79964 1.59621 -4.57387 -10.07042 -3.44823 -0.539 -24.29066 -10.07057 -6.08879 32.47194 88.66964 6.53565 0.02046 -27.29564 14.6237 2.30062 36.87418 -93.51871 12.95676 -0.05447 34.83211 -0.73015 -16.88227 -21.47371 -7.93271 -3.43569 -3.97201 38.13655 11.37361 4.20192 -26.77209 -8.41298 3.3534 3.95312
0.00724 0.00047 0.02777 19.28169 -21.96837 -6.1166 42.48482 1.5604 -4.55224 -10.12001 -3.49876 -0.59495 -24.68323 -10.15907 -6.22256 32.37339 88.6668 6.60204 0.03016 -27.21483 14.75229 2.58617 36.5842 -93.6304 13.02439 -0.03253 34.9563 -0.57098 -16.95534 -21.48229 -7.93064 -3.45423 -3.98262 38.35892 11.53147 4.14753 -26.74206 -8.42665 3.32764 3.94055
0.00708 0.00038 0.02987 19.58481 -22.02569 -6.10668 42.18113 1.51994 -4.52733 -10.17979 -3.55439 -0.65308 -25.13372 -10.24587 -6.38667 32.24814 88.65403 6.67078 0.04475 -27.14971 14.89213 2.92044 36.25394 -93.7852 13.10113 -0.01053 35.06737 -0.40563 -16.99464 -21.48945 -7.93176 -3.47624 -3.9954 38.56575 11.69754 4.12804 -26.71261 -8.43569 3.29832 3.92593
0.00679 0.00026 0.03208 19.87742 -22.09292 -6.09425 41.84661 1.49101 -4.50605 -10.21832 -3.60362 -0.70988 -25.44571 -10.34198 -6.45371 32.20623 88.655 6.73516 0.04787 -27.04009 15.00614 3.13705 36.0248 -93.86224 13.15943 0.01342 35.20534 -0.25382 -17.11264 -21.49943 -7.92522 -3.49 -4.00334 38.80366 11.85618 4.07332 -26.6806 -8.45206 3.27273 3.91365
0.00616 5e-05 0.03457 20.14295 -22.18887 -6.0784 41.43537 1.48861 -4.49978 -10.20005 -3.63367 -0.7599 -25.41057 -10.45309 -6.30216 32.36346 88.68715 6.78225 0.01545 -26.82443 15.05502 3.05629 36.0462 -93.70384 13.16433 0.0403 35.41586 -0.13708 -17.44624 -21.51712 -7.89928 -3.48227 -3.99838 39.12652 11.98805 3.88524 -26.64309 -8.49027 3.26093 3.90965
0.00539 -0.0002 0.03716 20.397 -22.29511 -6.05981 40.9946 1.49836 -4.49672 -10.1602 -3.65539 -0.80803 -25.23383 -10.57371 -6.05432 32.59896 88.73035 6.82454 -0.02883 -26.56539 15.07746 2.85663 36.1696 -93.468 13.15116 0.06885 35.65349 -0.03451 -17.85661 -21.53769 -7.86557 -3.46621 -3.98853 39.48067 12.11052 3.6574 -26.60353 -8.53627 3.25339 3.90826
0.00468 -0.00044 0.03969 20.65565 -22.39756 -6.04142 40.56704 1.50522 -4.49131 -10.12924 -3.67883 -0.85693 -25.11014 -10.69384 -5.83962 32.80059 88.76397 6.86972 -0.06766 -26.32348 15.10893 2.7034 36.2546 -93.2741 13.14758 0.09696 35.88018 0.07274 -18.229 -21.55718 -7.83475 -3.45354 -3.98074 39.8218 12.23484 3.4476 -26.56438 -8.57908 3.24397 3.90572
0.004 -0.00066 0.04226 20.91883 -22.49668 -6.02763 40.13813 1.50131 -4.49102 -10.10218 -3.71315 -0.90686 -25.03512 -10.79928 -5.6653 33.00438 88.81151 6.91138 -0.10835 -26.09007 15.15214 2.581 36.30806 -93.05216 13.13778 0.12432 36.10201 0.18715 -18.6181 -21.57583 -7.8064 -3.44231 -3.97357 40.15878 12.3705 3.24176 -26.52579 -8.62001 3.23381 3.90274
0.00321 -0.00092 0.04477 21.16744 -22.60437 -6.00319 39.70677 1.52245 -4.47878 -10.06181 -3.72078 -0.95383 -24.82189 -10.93636 -5.38551 33.21432 88.84043 6.9603 -0.14569 -25.83008 15.16547 2.36588 36.45087 -92.87097 13.13719 0.15315 36.33919 0.28366 -18.98698 -21.59672 -7.77127 -3.4263 -3.96403 40.5106 12.48016 3.01795 -26.48744 -8.66695 3.22638 3.9014
